HIERARCHY
ROOT Hips
{
	OFFSET 0.00000 0.00000 0.00000
	CHANNELS 6 Xposition Yposition Zposition Zrotation Yrotation Xrotation 
	JOINT LHipJoint
	{
		OFFSET 0 0 0
		CHANNELS 3 Zrotation Yrotation Xrotation
		JOINT LeftUpLeg
		{
			OFFSET 1.26600 -1.82114 0.91038
			CHANNELS 3 Zrotation Yrotation Xrotation
			JOINT LeftLeg
			{
				OFFSET 2.50076 -6.87080 0.00000
				CHANNELS 3 Zrotation Yrotation Xrotation
				JOINT LeftFoot
				{
					OFFSET 2.57364 -7.07102 0.00000
					CHANNELS 3 Zrotation Yrotation Xrotation
					JOINT LeftToeBase
					{
						OFFSET 0.13572 -0.37290 1.97004
						CHANNELS 3 Zrotation Yrotation Xrotation
						End Site
						{
							OFFSET 0.00000 -0.00000 1.01383
						}
					}
				}
			}
		}
	}
	JOINT RHipJoint
	{
		OFFSET 0 0 0
		CHANNELS 3 Zrotation Yrotation Xrotation
		JOINT RightUpLeg
		{
			OFFSET -1.20803 -1.82114 0.91038
			CHANNELS 3 Zrotation Yrotation Xrotation
			JOINT RightLeg
			{
				OFFSET -2.54916 -7.00377 0.00000
				CHANNELS 3 Zrotation Yrotation Xrotation
				JOINT RightFoot
				{
					OFFSET -2.56374 -7.04382 0.00000
					CHANNELS 3 Zrotation Yrotation Xrotation
					JOINT RightToeBase
					{
						OFFSET -0.23520 -0.64621 2.09921
						CHANNELS 3 Zrotation Yrotation Xrotation
						End Site
						{
							OFFSET -0.00000 -0.00000 1.10065
						}
					}
				}
			}
		}
	}
	JOINT LowerBack
	{
		OFFSET 0 0 0
		CHANNELS 3 Zrotation Yrotation Xrotation
		JOINT Spine
		{
			OFFSET 0.05492 2.10797 -0.12074
			CHANNELS 3 Zrotation Yrotation Xrotation
			JOINT Spine1
			{
				OFFSET 0.04577 2.11592 -0.04483
				CHANNELS 3 Zrotation Yrotation Xrotation
				JOINT Neck
				{
					OFFSET 0 0 0
					CHANNELS 3 Zrotation Yrotation Xrotation
					JOINT Neck1
					{
						OFFSET -0.10759 1.80167 0.15770
						CHANNELS 3 Zrotation Yrotation Xrotation
						JOINT Head
						{
							OFFSET 0.09237 1.77509 -0.40848
							CHANNELS 3 Zrotation Yrotation Xrotation
							End Site
							{
								OFFSET 0.03805 1.84093 -0.15754
							}
						}
					}
				}
				JOINT LeftShoulder
				{
					OFFSET 0 0 0
					CHANNELS 3 Zrotation Yrotation Xrotation
					JOINT LeftArm
					{
						OFFSET 3.42372 1.09575 -0.28209
						CHANNELS 3 Zrotation Yrotation Xrotation
						JOINT LeftForeArm
						{
							OFFSET 4.95681 -0.00000 0.00000
							CHANNELS 3 Zrotation Yrotation Xrotation
							JOINT LeftHand
							{
								OFFSET 3.40915 -0.00000 0.00000
								CHANNELS 3 Zrotation Yrotation Xrotation
								JOINT LeftFingerBase
								{
									OFFSET 0 0 0
									CHANNELS 3 Zrotation Yrotation Xrotation
									JOINT LeftHandIndex1
									{
										OFFSET 0.61640 -0.00000 0.00000
										CHANNELS 3 Zrotation Yrotation Xrotation
										End Site
										{
											OFFSET 0.49696 -0.00000 0.00000
										}
									}
								}
								JOINT LThumb
								{
									OFFSET 0 0 0
									CHANNELS 3 Zrotation Yrotation Xrotation
									End Site
									{
										OFFSET 0.50455 -0.00000 0.50455
									}
								}
							}
						}
					}
				}
				JOINT RightShoulder
				{
					OFFSET 0 0 0
					CHANNELS 3 Zrotation Yrotation Xrotation
					JOINT RightArm
					{
						OFFSET -3.24731 1.15872 -0.32221
						CHANNELS 3 Zrotation Yrotation Xrotation
						JOINT RightForeArm
						{
							OFFSET -5.35200 -0.00000 0.00000
							CHANNELS 3 Zrotation Yrotation Xrotation
							JOINT RightHand
							{
								OFFSET -3.43721 -0.00000 -0.00000
								CHANNELS 3 Zrotation Yrotation Xrotation
								JOINT RightFingerBase
								{
									OFFSET 0 0 0
									CHANNELS 3 Zrotation Yrotation Xrotation
									JOINT RightHandIndex1
									{
										OFFSET -0.72009 -0.00000 0.00000
										CHANNELS 3 Zrotation Yrotation Xrotation
										End Site
										{
											OFFSET -0.58056 -0.00000 0.00000
										}
									}
								}
								JOINT RThumb
								{
									OFFSET 0 0 0
									CHANNELS 3 Zrotation Yrotation Xrotation
									End Site
									{
										OFFSET -0.58942 -0.00000 0.58942
									}
								}
							}
						}
					}
				}
			}
		}
	}
}
MOTION
Frames: 5
Frame Time: 0.027027
0.00 0.00 0.00 7.1302 -82.6441 356.5340 0.0000 0.0000 0.0000 -17.8766 0.4482 13.2243 0.0460 1.3836 3.8048 2.6617 6.8148 29.5450 0.4902 4.4892 12.4571 0.0000 0.0000 0.0000 14.5618 11.7564 -46.6094 -10.5250 -17.6947 61.2292 -0.4917 7.8964 -12.8453 -0.6564 -5.1823 14.4291 -1.2504 -1.2909 8.3456 2.6083 -1.8259 2.3830 3.5852 -0.9441 -2.0843 -7.6169 1.2005 -15.8054 0.9536 2.6332 37.6276 2.0993 -0.3154 15.9102 0.0000 0.0000 0.0000 -90.1655 3.8629 15.6185 13.4593 -21.9564 -2.6225 -0.0000 -0.0000 1.4315 19.8337 20.3461 7.1480 -7.1250 0.0000 -0.0000 -8.7587 51.2878 -1.3655 0.0000 0.0000 0.0000 86.7390 -0.6450 14.2609 -13.5997 22.1595 -2.6752 0.0000 -0.0000 -8.9166 -19.3311 11.5599 -4.0212 7.1250 -0.0000 -0.0000 5.4724 -17.7830 3.5559
0.00 0.00 0.00 3.8972 -81.2693 360.4630 0.0000 0.0000 0.0000 -16.9412 -3.8884 4.5131 1.2617 7.1202 20.0720 2.1025 2.8766 26.6910 0.0600 1.5801 4.3465 0.0000 0.0000 0.0000 16.6508 10.9359 -40.1757 -8.2036 -16.2670 53.2928 -0.5315 6.0097 -13.0332 -0.6518 -5.1642 14.3776 -0.4984 -1.0585 8.8892 2.9222 -1.4388 2.1917 3.4690 -0.7459 -2.6213 -7.3609 1.1395 -15.5138 0.9482 2.5080 36.7937 2.0225 -0.2600 15.4326 0.0000 0.0000 0.0000 -90.1525 5.3296 18.1248 12.3560 -20.3364 -2.2245 -0.0000 -0.0000 5.0840 14.7622 21.6327 5.5484 -7.1250 0.0000 -0.0000 -14.2095 51.7265 -2.3940 0.0000 0.0000 0.0000 86.0165 -1.0761 14.9352 -13.4717 21.9744 -2.6272 0.0000 -0.0000 -8.2970 -18.1843 10.5856 -3.4532 7.1250 -0.0000 -0.0000 6.2687 -18.8880 3.9253
0.00 0.00 0.00 -5.5546 -81.0911 369.2470 0.0000 0.0000 0.0000 -15.2616 -4.8936 -1.9635 3.9832 12.1381 36.2222 0.2781 -0.0706 9.9866 0.0022 0.3016 0.8288 0.0000 0.0000 0.0000 20.0298 8.7967 -33.7779 -6.1367 -14.5596 45.5281 -0.3756 6.3513 -11.1151 -1.3658 -7.3967 20.8961 0.9627 -0.7104 8.9911 3.4700 -0.8864 2.9014 3.1465 -0.5002 -1.9898 -7.3712 1.0748 -15.5551 0.8155 2.5165 36.3688 1.9688 -0.2386 15.2398 -0.0000 -0.0000 0.0000 -89.7508 5.3497 22.3369 13.3276 -21.7653 -2.5735 -0.0000 -0.0000 6.3320 17.8535 22.9597 7.1613 -7.1250 0.0000 -0.0000 -11.7196 53.5917 -2.5028 -0.0000 -0.0000 0.0000 84.5610 -0.0970 17.8446 -14.0659 22.8288 -2.8536 0.0000 -0.0000 -8.6995 -17.6309 10.9892 -3.4669 7.1250 -0.0000 -0.0000 6.6605 -18.5073 4.2305
0.00 0.00 0.00 -9.8608 -51.0392 370.4570 0.0000 0.0000 0.0000 -8.2892 0.8661 -37.6518 11.1068 17.9870 63.1280 -0.5841 -23.6829 -12.2951 0.5952 -4.9390 -13.7345 0.0000 0.0000 0.0000 32.5848 -12.1103 -12.8147 -1.4852 -7.6996 21.8054 -0.5059 -10.1550 -20.7247 -0.4318 -4.2167 11.6872 9.9119 0.3269 8.8345 5.5055 1.2873 2.7122 0.0582 0.5617 -2.0174 -6.5446 2.7496 -14.8816 -2.3178 6.4654 38.6369 1.2085 1.1347 16.2546 -0.0000 0.0000 0.0000 -89.9238 2.4073 27.9918 21.7496 -32.6928 -6.4500 -0.0000 0.0000 -4.3948 20.5301 19.2372 7.0339 -7.1250 0.0000 -0.0000 -7.7246 50.2586 -1.0065 -0.0000 0.0000 0.0000 83.6060 -0.0755 24.9103 -18.2493 28.4752 -4.6675 0.0000 -0.0000 -12.7612 -17.9131 11.6915 -3.7477 7.1250 -0.0000 -0.0000 6.4665 -17.7571 4.2133
0.00 0.00 0.00 -9.4830 -46.8201 369.4260 0.0000 0.0000 0.0000 -8.1287 5.3774 -49.1569 16.7134 19.7390 80.3502 1.3275 -14.7854 -21.6350 0.4252 -4.1848 -11.5971 0.0000 0.0000 0.0000 33.4897 -13.7048 -10.3834 -0.9067 -6.0680 16.9818 0.0407 -13.9850 -19.3994 -0.4012 -4.0665 11.2639 10.3654 1.4175 9.3729 5.3940 2.8102 3.0967 -0.4629 1.3374 -1.7718 -5.6872 2.6724 -14.6774 -2.1602 6.1189 38.5564 1.0789 1.1978 16.1814 -0.0000 -0.0000 0.0000 -89.0275 2.2844 27.6144 22.1475 -33.1433 -6.6663 -0.0000 0.0000 -6.0578 19.3860 20.3668 6.9819 -7.1250 0.0000 -0.0000 -9.2063 51.2334 -1.4239 -0.0000 -0.0000 0.0000 83.9758 -0.3793 25.8234 -17.9949 28.1507 -4.5468 0.0000 -0.0000 -12.6634 -23.3946 8.7016 -3.7447 7.1250 -0.0000 -0.0000 2.5190 -20.5166 1.4778
